# xmcd
#
# Track frame offsets: 
#        150
#        15621
#        28700
#        42016
#        55800
#        70244
#        84292
#        98532
#        110528
#        123963
#        137375
#        148915
#        162591
#        175930
#        188647
#        202623
#        215605
#        227961
#        240533
#        251725
#        261921
#        273581
#        286465
#        300249
#        312184
#
# Disc length: 4329 seconds
#
# Revision: 1
# Processed by: cddbd v1.5.1PL0 Copyright (c) Steve Scherf et al.
# Submitted via: ExactAudioCopy v0.95a5
#
DISCID=5b10e719
DTITLE=Various Artist - Harlem Blues
DYEAR=1999
DGENRE=Blues
TTITLE0=Bessie Smith - Down Hearted Blues
TTITLE1=Sara Martin - Atlanta Blues
TTITLE2=Margaret Johnson - When a 'gator Hollers, Folks Say It's a Sig
TTITLE2=n of Rain
TTITLE3=Victoria Spivey - Murder in the First Degree
TTITLE4=Leecan and Cooksey - Need More Blues
TTITLE5=Helen Humes - Cross-Eyed Blues
TTITLE6=Maggie Jones - North Bound Blues
TTITLE7=Butterbeans and Susie - He Likes It Slow
TTITLE8=Josh White - Gone Dry Blues (as Pinewood Tom)
TTITLE9=Lem Johnson - Railroad Blues
TTITLE10=Mabel Robinson - I've Got Too Many Blues
TTITLE11=Connie McLean - When the Breath Bids the Body Goodbye
TTITLE12=Yack Taylor - Whip It to a Jelly
TTITLE13=Joe Turner - Roll 'em Pete
TTITLE14=Bea Booze - Mr. Freddie Blues
TTITLE15=Hot Lips Page - Big "D" Blues
TTITLE16=Christine Chatman - The Boogie Woogie Girl
TTITLE17=Albinia Jones - Albinia's Blues
TTITLE18=Brownie McGhee - Brownie's Guitar Boogie
TTITLE19=Rubberlegs Williams - 4-F Blues
TTITLE20=Champion Jack Dupree - Bad Whiskey and Women
TTITLE21=Sonny Boy and Lonnie - South West Pacific Blues
TTITLE22=Jelly Belly and Guitar Slim - Water Trough Blues
TTITLE23=Little Boy Fuller - Shake Your Stuff
TTITLE24=Hank Kilroy - Harlem Women
EXTD=
EXTT0=16 Feb 1923 NYC
EXTT1=1 Aug 1923 NYC
EXTT2=20 Oct 1925 NYC
EXTT3=1 Nov 1927 NYC
EXTT4=22 Nov 1926 Camden NJ
EXTT5=26 Nov 1927 NYC
EXTT6=16 Apr 1925 NYC
EXTT7=18 Jun 1926 NYC
EXTT8=19 Mar 1935 NYC
EXTT9=5 Jul 1939 NYC
EXTT10=23 Jul 1941 NYC
EXTT11=24 Apr 1936 NYC
EXTT12=23 Jul 1941 NYC
EXTT13=30 Dec 38 NYC
EXTT14=9 Mar 1944 NYC
EXTT15=30 Nov 1944 NYC
EXTT16=6 Apr 1944 NYC
EXTT17=15 Apr 1945 NYC
EXTT18=1946 NYC
EXTT19=Jan 1945 NYC
EXTT20=1945/6 NYC
EXTT21=1945 NYC
EXTT22=1947 NYC
EXTT23=22 Oct 1946 NYC
EXTT24=1948 NYC
PLAYORDER=
